<?xml version="1.0" encoding="utf-8"?>
<!DOCTYPE svg PUBLIC "-//W3C//DTD SVG 1.0//EN" "http://www.w3.org/TR/2001/REC-SVG-20010904/DTD/svg10.dtd">
<svg version="1.0" xmlns="http://www.w3.org/2000/svg" width="500px" height="500px" viewBox="0 0 500 500" preserveAspectRatio="xMidYMid meet">
 <g fill="#ffffff">
  <path d="M182.5 316.3 c-3.3 -2 -16.8 -9.9 -30 -17.6 -13.2 -7.7 -29.3 -17.2 -35.7 -21 -6.5 -3.7 -11.8 -7 -11.8 -7.2 0 -0.6 25.1 -14.5 26.2 -14.5 0.7 0 14.1 7.6 29.8 16.8 l28.5 16.8 0.3 15.2 c0.1 8.4 -0.1 15.2 -0.5 15.1 -0.5 0 -3.5 -1.7 -6.8 -3.6z m5.3 -13 l-0.3 -12.7 -28.1 -16.2 -28.1 -16.1 -10.6 6.1 c-5.9 3.3 -10.7 6.4 -10.7 6.7 0 0.4 12.4 7.8 27.6 16.5 15.1 8.8 32.4 18.7 38.2 22.1 5.9 3.4 11.1 6.2 11.5 6.3 0.4 0 0.6 -5.7 0.5 -12.7z"/>
  <path d="M195.3 317.8 c0.3 -0.7 3.7 -6.7 7.6 -13.3 3.8 -6.6 21.3 -37.3 38.8 -68.2 l31.8 -56.2 15.3 -0.1 c14.2 0 15.2 0.1 14.3 1.8 -0.5 0.9 -4.2 7.3 -8.2 14.2 -3.9 6.9 -21.2 37.3 -38.4 67.5 l-31.1 55 -15.3 0.3 c-12.1 0.2 -15.2 0 -14.8 -1z m59.2 -56.5 c16.8 -30.2 33.5 -59.9 37.1 -66.2 3.5 -6.2 6.4 -11.5 6.4 -11.7 0 -0.3 -5.2 -0.3 -11.6 -0.2 l-11.6 0.3 -30.3 54 c-16.6 29.7 -32.9 58.8 -36.3 64.7 -8.9 15.3 -9.3 13.8 4.1 13.8 l11.5 0 30.7 -54.7z"/>
  <path d="M310 303.9 l0 -15.4 45.1 -26.5 c24.8 -14.6 45.5 -26.6 45.9 -26.8 0.4 -0.2 3.4 1.2 6.6 3.1 3.3 1.9 9.2 5.3 13.2 7.7 l7.4 4.2 -13.9 8.3 c-7.6 4.5 -28.2 16.7 -45.8 27 -17.6 10.3 -37.3 21.9 -43.7 25.6 -6.4 3.8 -12.4 7.2 -13.2 7.5 -1.4 0.5 -1.6 -1.2 -1.6 -14.7z m13.6 4.8 c63 -36.7 80.4 -46.9 89.2 -52.2 l10.3 -6.3 -3.3 -2 c-11.5 -6.9 -18 -10.3 -19.2 -10 -0.7 0.2 -20.9 11.8 -44.9 25.8 l-43.7 25.5 0 12.7 c0 7.1 0.2 12.8 0.4 12.8 0.2 0 5.2 -2.9 11.2 -6.3z"/>
  <path d="M85.5 259 c-6.6 -3.8 -12.1 -7.3 -12.2 -7.7 -0.2 -0.5 4.3 -3.7 9.9 -7 15 -8.8 82.5 -48.6 95.1 -56 5.9 -3.5 11 -6.3 11.3 -6.3 0.2 0 0.3 6.8 0.2 15.2 l-0.3 15.2 -45.4 26.8 c-25 14.7 -45.7 26.8 -46 26.7 -0.3 0 -6 -3.1 -12.6 -6.9z m61.6 -23.7 l40.9 -23.8 0 -12.7 c0 -7.1 -0.2 -12.8 -0.4 -12.8 -0.4 0 -3.1 1.6 -55.1 31.9 -47 27.5 -55.5 32.5 -55.5 33.1 0 0.3 4.8 3.3 10.7 6.7 l10.8 6.1 3.9 -2.3 c2.1 -1.3 22.3 -13.1 44.7 -26.2z"/>
  <path d="M339.2 228.8 l-29.2 -17.1 0 -15.4 0 -15.5 6.8 3.8 c3.7 2.1 17.5 10.1 30.7 17.9 13.2 7.8 29.3 17.2 35.8 21 6.5 3.7 11.4 7.2 11 7.6 -0.7 0.7 -25.2 14.9 -25.7 14.9 -0.1 0 -13.3 -7.7 -29.4 -17.2z m40.6 7.4 c10.2 -5.9 10.3 -6.1 8 -7.5 -4.2 -2.6 -19.1 -11.3 -27.8 -16.2 -4.7 -2.6 -15.2 -8.7 -23.5 -13.5 -8.2 -4.8 -17.1 -9.9 -19.7 -11.4 l-4.8 -2.7 0 12.8 0 12.9 27.8 16.1 c15.2 8.9 28.2 16 28.7 15.8 0.6 -0.1 5.7 -3 11.3 -6.3z"/>
 </g>
</svg>